<?xml version="1.0" standalone="no"?><!DOCTYPE svg PUBLIC "-//W3C//DTD SVG 1.1//EN" "http://www.w3.org/Graphics/SVG/1.1/DTD/svg11.dtd"><svg t="1603532878703" class="icon" viewBox="0 0 1024 1024" version="1.1" xmlns="http://www.w3.org/2000/svg" p-id="10286" xmlns:xlink="http://www.w3.org/1999/xlink" width="200" height="200"><defs><style type="text/css"></style></defs><path d="M956.8 219.52c41.6-41.6 41.6-110.08 0-151.68-20.48-20.48-47.36-31.36-75.52-31.36s-55.68 10.88-75.52 31.36l-24.96 24.96c-126.72-62.08-284.8-40.32-390.4 64.64L222.72 325.12c-16.64 12.16-99.84 21.12-174.72 18.56-18.56-0.64-35.2 10.24-42.88 26.88-7.04 16.64-3.84 36.48 9.6 49.28l179.84 179.84c-56.96 76.16-58.24 169.6 1.28 229.12 29.44 29.44 67.84 44.16 108.16 44.16 40.32 0 82.56-14.72 120.32-42.88l179.84 179.84c8.32 8.32 19.84 12.8 32 12.8 6.4 0 13.44-1.28 19.2-4.48 17.28-8.32 26.88-26.88 24.96-45.44-10.24-88.32 7.04-151.68 22.4-167.04L870.4 638.08c107.52-106.24 128-266.88 62.72-394.88l23.68-23.68z m-88.32-87.68c4.48-4.48 9.6-5.12 12.16-5.12s8.32 0.64 12.16 5.12c7.04 7.04 7.04 17.92 0 24.96l-12.16 12.16c-3.2-3.84-6.4-7.04-10.24-10.88-5.12-5.12-9.6-9.6-14.72-14.08l12.8-12.16z m-609.28 633.6c-24.32-24.32-23.68-64 0-101.12l101.12 101.76c-37.12 23.04-76.16 24.32-101.12-0.64z m548.48-190.08L640 743.04c-30.72 30.72-44.16 80-49.28 126.72L152.32 430.72c53.12-4.48 108.16-16 133.76-42.24l167.68-167.68c97.92-97.92 256.64-97.92 353.92 0 97.28 97.92 97.28 257.28 0 354.56z" p-id="10287" fill="#5a5e66"></path></svg>